<?xml version="1.0" encoding="UTF-8" standalone="no"?>
<!-- Created with Inkscape (http://www.inkscape.org/) -->

<svg
   xmlns:dc="http://purl.org/dc/elements/1.1/"
   xmlns:cc="http://creativecommons.org/ns#"
   xmlns:rdf="http://www.w3.org/1999/02/22-rdf-syntax-ns#"
   xmlns:svg="http://www.w3.org/2000/svg"
   xmlns="http://www.w3.org/2000/svg"
   xmlns:sodipodi="http://sodipodi.sourceforge.net/DTD/sodipodi-0.dtd"
   xmlns:inkscape="http://www.inkscape.org/namespaces/inkscape"
   width="300"
   height="300"
   id="svg2"
   version="1.1"
   inkscape:version="0.48.3.1 r9886"
   sodipodi:docname="diamond.svg">
  <defs
     id="defs4">
    <filter
       inkscape:collect="always"
       id="filter3864">
      <feGaussianBlur
         inkscape:collect="always"
         stdDeviation="1.7537007"
         id="feGaussianBlur3866" />
    </filter>
    <filter
       inkscape:collect="always"
       id="filter3876">
      <feGaussianBlur
         inkscape:collect="always"
         stdDeviation="3.0536889"
         id="feGaussianBlur3878" />
    </filter>
  </defs>
  <sodipodi:namedview
     id="base"
     pagecolor="#ffffff"
     bordercolor="#666666"
     borderopacity="1.0"
     inkscape:pageopacity="0.0"
     inkscape:pageshadow="2"
     inkscape:zoom="0.35"
     inkscape:cx="140.54156"
     inkscape:cy="57.046193"
     inkscape:document-units="px"
     inkscape:current-layer="layer1"
     showgrid="false"
     width="800px"
     inkscape:window-width="1280"
     inkscape:window-height="643"
     inkscape:window-x="0"
     inkscape:window-y="24"
     inkscape:window-maximized="1" />
  <metadata
     id="metadata7">
    <rdf:RDF>
      <cc:Work
         rdf:about="">
        <dc:format>image/svg+xml</dc:format>
        <dc:type
           rdf:resource="http://purl.org/dc/dcmitype/StillImage" />
        <dc:title />
      </cc:Work>
    </rdf:RDF>
  </metadata>
  <g
     inkscape:label="Capa 1"
     inkscape:groupmode="layer"
     id="layer1"
     transform="translate(0,-752.36216)">
    <g
       id="g3880">
      <path
         sodipodi:nodetypes="cccccccc"
         inkscape:connector-curvature="0"
         id="path3814"
         d="M 272.66711,889.73846 151.01833,1021.0025 22.676226,891.91776 l -0.10306,-52.20955 59.511025,-61.30835 139.089289,2.57109 54.13082,63.66835 z"
         style="opacity:1;fill:#c507fe;fill-opacity:1;stroke:#000000;stroke-opacity:1;stroke-width:7.20000000000000018;stroke-miterlimit:4;stroke-dasharray:none" />
      <path
         sodipodi:nodetypes="cccccccccccccsccccs"
         inkscape:connector-curvature="0"
         id="path3819"
         d="m 92.958597,791.33091 c -11.1381,18.19665 -15.201044,22.23387 -48.5625,53.5625 l -1.125,38.4375 c 45.967992,21.62098 37.378137,46.26115 92.437503,95.15625 l -31,-77.90625 c 45.57419,-9.34847 70.93834,-21.70611 124.59375,-0.75 l -0.125,-17.6875 c -27.14512,-30.25579 -8.8533,-52.43948 -29.9375,-72.59375 -32.4088,5.36915 -65.79123,-6.41531 -106.281253,-18.21875 z m 9.269513,16.32186 c 5.51872,13.08153 -20.277288,39.29505 -22.839788,60.45781 L 53.739847,854.01841 c 18.183059,-14.44506 34.345814,-32.93073 48.488263,-46.36564 z m 81.19924,33.14689 c 16.80094,-0.13194 14.23128,30.30108 34.75,43.875 -36.70221,-7.07107 -73.39154,-4.03903 -110.09375,6.0625 7.7445,-22.56008 17.49693,-46.13203 32.3125,-46.46875 12.12183,6.06092 27.28442,5.04997 39.40625,-3.03125 1.30478,-0.29463 2.50494,-0.4287 3.625,-0.4375 z"
         style="opacity:0.53053433000000005;fill:#e5acf5;fill-opacity:1;stroke:none;filter:url(#filter3864)" />
      <path
         id="path3832"
         transform="translate(0,752.36216)"
         d="M 219.84375 32.625 C 244.49895 98.885859 253.51724 88.8724 270.34375 117 L 272.46875 94.28125 L 219.84375 32.625 z M 270.25 116.96875 C 212.75549 165.28772 203.7296 197.64154 178.8125 234.34375 C 202.73272 208.72667 238.56587 169.6254 269.03125 135.96875 C 269.8424 128.58139 270.3492 122.11173 270.25 116.96875 z "
         style="fill:#6f0191;fill-opacity:1;stroke:none;filter:url(#filter3876)" />
    </g>
  </g>
</svg>
