<?xml version="1.0" encoding="UTF-8" standalone="no"?>
<!-- Created with Inkscape (http://www.inkscape.org/) -->

<svg
   xmlns:dc="http://purl.org/dc/elements/1.1/"
   xmlns:cc="http://creativecommons.org/ns#"
   xmlns:rdf="http://www.w3.org/1999/02/22-rdf-syntax-ns#"
   xmlns:svg="http://www.w3.org/2000/svg"
   xmlns="http://www.w3.org/2000/svg"
   xmlns:sodipodi="http://sodipodi.sourceforge.net/DTD/sodipodi-0.dtd"
   xmlns:inkscape="http://www.inkscape.org/namespaces/inkscape"
   width="300"
   height="300"
   id="svg2"
   version="1.1"
   inkscape:version="0.48.3.1 r9886"
   sodipodi:docname="digicat-enemies.svg">
  <defs
     id="defs4">
    <filter
       inkscape:collect="always"
       id="filter4167"
       x="-0.19815266"
       width="1.3963053"
       y="-0.19884102"
       height="1.397682">
      <feGaussianBlur
         inkscape:collect="always"
         stdDeviation="18.252429"
         id="feGaussianBlur4169" />
    </filter>
  </defs>
  <sodipodi:namedview
     id="base"
     pagecolor="#ffffff"
     bordercolor="#666666"
     borderopacity="1.0"
     inkscape:pageopacity="0.0"
     inkscape:pageshadow="2"
     inkscape:zoom="0.7"
     inkscape:cx="-134.88873"
     inkscape:cy="171.19288"
     inkscape:document-units="px"
     inkscape:current-layer="layer1"
     showgrid="false"
     inkscape:window-width="1280"
     inkscape:window-height="643"
     inkscape:window-x="0"
     inkscape:window-y="24"
     inkscape:window-maximized="1" />
  <metadata
     id="metadata7">
    <rdf:RDF>
      <cc:Work
         rdf:about="">
        <dc:format>image/svg+xml</dc:format>
        <dc:type
           rdf:resource="http://purl.org/dc/dcmitype/StillImage" />
        <dc:title />
      </cc:Work>
    </rdf:RDF>
  </metadata>
  <g
     inkscape:label="Capa 1"
     inkscape:groupmode="layer"
     id="layer1"
     transform="translate(0,-752.36218)">
    <path
       style="fill:#ffff00;fill-opacity:1;stroke:#000000;stroke-width:7;stroke-miterlimit:4;stroke-opacity:1;stroke-dasharray:none;stroke-dashoffset:0"
       d="m 41.600819,839.00443 c 10.116631,-18.77953 39.850585,-18.96837 53.141946,-35.65244 6.026375,-7.5646 2.459545,-21.53476 10.370825,-27.09823 9.73922,-6.84896 27.37194,-9.23031 35.71153,-0.73251 7.65275,7.79791 -8.40149,24.45928 -1.28786,32.75198 5.63667,6.57094 18.39197,7.41226 25.80496,2.94052 11.87452,-7.16304 15.11218,-38.76139 15.11218,-38.76139 5.73444,-14.70834 31.55522,1.06928 47.33282,1.60388 15.77761,0.53435 -12.70211,37.42671 -2.13855,50.59129 2.94544,3.67065 11.05619,-1.27574 13.90061,2.47374 5.30694,6.99563 2.80292,26.21932 2.80292,26.21932 l 0.66433,98.93027 c 11.89148,-3.15934 20.91963,-1.28413 28.59938,3.82485 2.95355,8.56657 -13.19165,16.23034 -13.19165,16.23034 l -38.25286,5.97697 -1.03384,-19.23148 -42.7225,-2.25967 -4.64913,24.47223 -35.70495,34.8016 c 0,0 -14.70496,9.9679 -22.8736,9.1391 -7.38433,-0.7495 -13.927759,-6.6917 -15.388668,-13.3159 -2.510075,-11.3814 14.364118,-31.87785 14.364118,-31.87785 l -24.735686,0.40055 -46.263541,45.7116 c 0,0 -17.673334,4.7678 -23.808701,-0.2667 -5.701894,-4.6791 -5.964579,-14.4113 -4.561686,-21.6527 3.162731,-16.32506 27.769751,-41.44198 27.769751,-41.44198 0,0 -18.53066,-87.45231 1.037818,-123.77739 z"
       id="rect3073"
       inkscape:connector-curvature="0"
       sodipodi:nodetypes="sssssssssscccccccccsacccaacs" />
    <path
       sodipodi:nodetypes="sssssssssscccccccccsacccaacs"
       inkscape:connector-curvature="0"
       id="path4067"
       d="m 57.257538,849.272 c 8.605356,-15.79177 33.897505,-15.95057 45.203322,-29.98027 5.12613,-6.3611 2.09213,-18.10865 8.82158,-22.78699 8.28433,-5.75932 23.28298,-7.76181 30.37675,-0.61597 6.50954,6.55729 -7.14643,20.5679 -1.09547,27.54126 4.79464,5.52552 15.64448,6.23299 21.95008,2.47268 10.10065,-6.02342 12.85464,-32.59459 12.85464,-32.59459 4.87781,-12.36829 26.84134,0.89917 40.262,1.34871 13.42066,0.44935 -10.8046,31.47226 -1.81908,42.5424 2.50544,3.08667 9.40456,-1.07277 11.82406,2.08018 4.51416,5.88265 2.38421,22.04792 2.38421,22.04792 l 0.56508,83.19085 c 10.11508,-2.6567 17.79455,-1.07984 24.32706,3.21632 2.51233,7.20366 -11.22102,13.64815 -11.22102,13.64815 l -32.53844,5.02605 -0.8794,-16.17181 -36.34039,-1.90017 -3.95462,20.57879 -30.37116,29.26484 c 0,0 -12.50826,8.38205 -19.45662,7.68515 -6.28121,-0.6303 -11.84715,-5.6271 -13.08983,-11.19744 -2.13509,-9.57066 12.21834,-26.80624 12.21834,-26.80624 l -21.040542,0.33682 -39.352451,38.43906 c 0,0 -15.033202,4.0094 -20.252034,-0.2242 -4.850116,-3.9347 -5.07356,-12.11855 -3.880232,-18.20786 2.690267,-13.72785 23.621354,-34.84877 23.621354,-34.84877 0,0 -15.762448,-73.53898 0.882793,-104.08487 z"
       style="fill:#ff352b;fill-opacity:1;stroke:none;filter:url(#filter4167)"
       transform="matrix(0.95418554,0,0,0.97703583,8.8023696,15.590569)" />
    <g
       id="g4006"
       transform="translate(-6.0609148,3.5355336)">
      <path
         sodipodi:open="true"
         sodipodi:end="6.2517531"
         sodipodi:start="0"
         transform="matrix(3.278033,0,0,3.278033,-63.987339,705.90045)"
         d="m 48.61359,46.830517 c 0,1.743412 -1.75251,3.156726 -3.914341,3.156726 -2.161831,0 -3.914341,-1.413314 -3.914341,-3.156726 0,-1.743412 1.75251,-3.156727 3.914341,-3.156727 2.113937,0 3.845973,1.353574 3.912408,3.05752"
         sodipodi:ry="3.1567266"
         sodipodi:rx="3.9143412"
         sodipodi:cy="46.830517"
         sodipodi:cx="44.699249"
         id="path3868"
         style="fill:#000000;fill-opacity:1;stroke:none"
         sodipodi:type="arc" />
      <path
         sodipodi:type="arc"
         style="fill:#e6e6e6;fill-opacity:1;stroke:none"
         id="path3936"
         sodipodi:cx="44.699249"
         sodipodi:cy="46.830517"
         sodipodi:rx="3.9143412"
         sodipodi:ry="3.1567266"
         d="m 48.61359,46.830517 c 0,1.743412 -1.75251,3.156726 -3.914341,3.156726 -2.161831,0 -3.914341,-1.413314 -3.914341,-3.156726 0,-1.743412 1.75251,-3.156727 3.914341,-3.156727 2.113937,0 3.845973,1.353574 3.912408,3.05752"
         transform="matrix(1.2780329,0,0,1.2780329,20.612938,800.3191)"
         sodipodi:start="0"
         sodipodi:end="6.2517531"
         sodipodi:open="true" />
    </g>
    <path
       style="fill:#000000;fill-opacity:1;stroke:none"
       d="m 96.75826,885.38428 c -2.665975,2.66598 -2.665975,8.64482 0,11.31079 3.078235,3.07821 13.05983,0 13.05983,0 0,0 3.02326,9.80336 0,12.82661 -1.37421,1.37423 -5.83028,0 -5.83028,0 0,0 -6.772243,3.92689 -8.146454,5.30112 -1.580345,1.58035 -0.505076,7.71498 -0.505076,7.71498 0,0 -0.191385,4.11432 1.38896,5.69467 1.442923,1.4429 6.48265,-3.69398 6.48265,-3.69398 0,0 5.2146,-1.77138 7.19323,-1.60714 2.13048,0.17685 0,-6.41326 0,-6.41326 l 0,-6.41335 10.3779,0 0,6.41335 c 0,0 -1.51163,4.90159 0,6.41326 1.44293,1.4429 8.08609,-1.60714 8.08609,-1.60714 0,0 5.42378,4.24401 6.8667,2.80111 1.58034,-1.58035 1.75509,-4.86308 1.75509,-4.86308 0,0 0.50891,-4.9459 -1.07143,-6.52625 -1.29176,-1.29175 -7.08762,-4.28572 -7.08762,-4.28572 0,0 -5.97442,2.36318 -7.26617,1.07143 -3.02326,-3.02325 0,-12.82661 0,-12.82661 0,0 11.2293,3.46301 14.69231,0 2.66598,-2.66597 2.66598,-8.64481 0,-11.31079 -2.35677,-2.35679 -9.99893,0 -9.99893,0 l -9.99894,0 -9.99893,0 c 0,0 -7.642156,-2.35679 -9.99893,0 z"
       id="rect3874"
       inkscape:connector-curvature="0"
       sodipodi:nodetypes="sscscscscsccccscscscscsscccs" />
    <g
       id="g4010"
       transform="translate(63.639611,3.0304577)">
      <path
         sodipodi:type="arc"
         style="fill:#000000;fill-opacity:1;stroke:none"
         id="path4012"
         sodipodi:cx="44.699249"
         sodipodi:cy="46.830517"
         sodipodi:rx="3.9143412"
         sodipodi:ry="3.1567266"
         d="m 48.61359,46.830517 c 0,1.743412 -1.75251,3.156726 -3.914341,3.156726 -2.161831,0 -3.914341,-1.413314 -3.914341,-3.156726 0,-1.743412 1.75251,-3.156727 3.914341,-3.156727 2.113937,0 3.845973,1.353574 3.912408,3.05752"
         transform="matrix(3.278033,0,0,3.278033,-63.987339,705.90045)"
         sodipodi:start="0"
         sodipodi:end="6.2517531"
         sodipodi:open="true" />
      <path
         sodipodi:open="true"
         sodipodi:end="6.2517531"
         sodipodi:start="0"
         transform="matrix(1.2780329,0,0,1.2780329,20.612938,800.3191)"
         d="m 48.61359,46.830517 c 0,1.743412 -1.75251,3.156726 -3.914341,3.156726 -2.161831,0 -3.914341,-1.413314 -3.914341,-3.156726 0,-1.743412 1.75251,-3.156727 3.914341,-3.156727 2.113937,0 3.845973,1.353574 3.912408,3.05752"
         sodipodi:ry="3.1567266"
         sodipodi:rx="3.9143412"
         sodipodi:cy="46.830517"
         sodipodi:cx="44.699249"
         id="path4014"
         style="fill:#e6e6e6;fill-opacity:1;stroke:none"
         sodipodi:type="arc" />
    </g>
  </g>
</svg>
